<svg id="Layer_1" data-name="Layer 1" xmlns="http://www.w3.org/2000/svg" width="100" height="100" viewBox="0 0 100 100">
  <title>arrow-slider-left</title>
  <g>
    <polygon points="35.42 78.45 31.69 82.2 0 50.38 0 100 100 100 100 51 8.24 51 35.42 78.45" style="fill: none"/>
    <polygon points="0 46.63 0 50.38 1.87 48.5 0 46.63" style="fill: none"/>
    <polygon points="0 0 0 46.63 31.69 14.8 35.42 18.55 8.24 46 100 46 100 0 0 0" style="fill: none"/>
    <polygon points="35.42 18.55 31.69 14.8 0 46.63 1.87 48.5 0 50.38 31.69 82.2 35.42 78.45 8.24 51 100 51 100 46 8.24 46 35.42 18.55" style="fill: #db252a"/>
  </g>
</svg>
